<?xml version="1.0" encoding="UTF-8" standalone="no"?>
<!DOCTYPE svg PUBLIC "-//W3C//DTD SVG 1.1//EN"
 "http://www.w3.org/Graphics/SVG/1.1/DTD/svg11.dtd">
<!-- Generated by graphviz version 2.38.0 (20140413.2041)
 -->
<!-- Title: %3 Pages: 1 -->
<svg width="359pt" height="250pt"
 viewBox="0.00 0.00 358.63 249.63" xmlns="http://www.w3.org/2000/svg" xmlns:xlink="http://www.w3.org/1999/xlink">
<g id="graph0" class="graph" transform="scale(1 1) rotate(0) translate(152.582 133.185)">
<title>%3</title>
<polygon fill="white" stroke="none" points="-152.582,116.442 -152.582,-133.185 206.046,-133.185 206.046,116.442 -152.582,116.442"/>
<!-- Gorgon -->
<g id="node1" class="node"><title>Gorgon</title>
<polygon fill="none" stroke="black" points="52.4282,-20.6372 -55.5718,-20.6372 -55.5718,15.3628 52.4282,15.3628 52.4282,-20.6372"/>
<polygon fill="none" stroke="black" points="56.4282,-24.6372 -59.5718,-24.6372 -59.5718,19.3628 56.4282,19.3628 56.4282,-24.6372"/>
<text text-anchor="middle" x="-1.57178" y="1.06285" font-family="Times,serif" font-size="14.00">Gorgon</text>
</g>
<!-- Application -->
<g id="node2" class="node"><title>Application</title>
<polygon fill="none" stroke="black" points="198.046,-20.6372 90.0465,-20.6372 90.0465,15.3628 198.046,15.3628 198.046,-20.6372"/>
<polygon fill="none" stroke="black" points="202.046,-24.6372 86.0465,-24.6372 86.0465,19.3628 202.046,19.3628 202.046,-24.6372"/>
<text text-anchor="middle" x="144.046" y="1.06285" font-family="Times,serif" font-size="14.00">Application</text>
</g>
<!-- Gorgon&#45;&#45;Application -->
<g id="edge5" class="edge"><title>Gorgon&#45;&#45;Application</title>
<path fill="none" stroke="black" d="M56.8177,-2.63715C66.3127,-2.63715 76.1486,-2.63715 85.6439,-2.63715"/>
</g>
<!-- GL -->
<g id="node3" class="node"><title>GL</title>
<polygon fill="none" stroke="black" points="122.507,76.4417 68.507,76.4417 68.507,112.442 122.507,112.442 122.507,76.4417"/>
<text text-anchor="middle" x="95.507" y="98.1417" font-family="Times,serif" font-size="14.00">GL</text>
</g>
<!-- Gorgon&#45;&#45;GL -->
<g id="edge8" class="edge"><title>Gorgon&#45;&#45;GL</title>
<path fill="none" stroke="black" d="M20.4569,19.3915C37.6871,36.6217 61.3461,60.2808 77.4641,76.3988"/>
</g>
<!-- Window manager -->
<g id="node4" class="node"><title>Window manager</title>
<polygon fill="none" stroke="black" points="55.9282,76.4417 -59.0718,76.4417 -59.0718,112.442 55.9282,112.442 55.9282,76.4417"/>
<text text-anchor="middle" x="-1.57178" y="98.1417" font-family="Times,serif" font-size="14.00">Window manager</text>
</g>
<!-- Gorgon&#45;&#45;Window manager -->
<g id="edge7" class="edge"><title>Gorgon&#45;&#45;Window manager</title>
<path fill="none" stroke="black" d="M-1.57178,19.3915C-1.57178,36.6217 -1.57178,60.2808 -1.57178,76.3988"/>
</g>
<!-- Audio -->
<g id="node5" class="node"><title>Audio</title>
<polygon fill="none" stroke="black" points="-75.4312,38.1222 -129.431,38.1222 -129.431,74.1222 -75.4312,74.1222 -75.4312,38.1222"/>
<text text-anchor="middle" x="-102.431" y="59.8222" font-family="Times,serif" font-size="14.00">Audio</text>
</g>
<!-- Gorgon&#45;&#45;Audio -->
<g id="edge1" class="edge"><title>Gorgon&#45;&#45;Audio</title>
<path fill="none" stroke="black" d="M-39.4151,19.4098C-51.377,26.3787 -64.3483,33.9356 -75.3955,40.3715"/>
</g>
<!-- OS -->
<g id="node6" class="node"><title>OS</title>
<polygon fill="none" stroke="black" points="-7.74571,-129.185 -61.7457,-129.185 -61.7457,-93.1852 -7.74571,-93.1852 -7.74571,-129.185"/>
<text text-anchor="middle" x="-34.7457" y="-107.485" font-family="Times,serif" font-size="14.00">OS</text>
</g>
<!-- Gorgon&#45;&#45;OS -->
<g id="edge2" class="edge"><title>Gorgon&#45;&#45;OS</title>
<path fill="none" stroke="black" d="M-8.36507,-24.8654C-14.5068,-44.9617 -23.4396,-74.1906 -29.1715,-92.946"/>
</g>
<!-- Filesystem -->
<g id="node7" class="node"><title>Filesystem</title>
<polygon fill="none" stroke="black" points="98.8756,-89.2618 22.8756,-89.2618 22.8756,-53.2618 98.8756,-53.2618 98.8756,-89.2618"/>
<text text-anchor="middle" x="60.8756" y="-67.5618" font-family="Times,serif" font-size="14.00">Filesystem</text>
</g>
<!-- Gorgon&#45;&#45;Filesystem -->
<g id="edge3" class="edge"><title>Gorgon&#45;&#45;Filesystem</title>
<path fill="none" stroke="black" d="M18.5307,-24.7282C26.8027,-33.8184 36.2725,-44.225 44.1563,-52.8886"/>
</g>
<!-- Networking -->
<g id="node8" class="node"><title>Networking</title>
<polygon fill="none" stroke="black" points="-67.5824,-60.6558 -148.582,-60.6558 -148.582,-24.6558 -67.5824,-24.6558 -67.5824,-60.6558"/>
<text text-anchor="middle" x="-108.082" y="-38.9558" font-family="Times,serif" font-size="14.00">Networking</text>
</g>
<!-- Gorgon&#45;&#45;Networking -->
<g id="edge4" class="edge"><title>Gorgon&#45;&#45;Networking</title>
<path fill="none" stroke="black" d="M-59.8133,-24.5199C-62.3387,-25.4688 -64.8491,-26.412 -67.3214,-27.3409"/>
</g>
<!-- Application&#45;&#45;GL -->
<g id="edge9" class="edge"><title>Application&#45;&#45;GL</title>
<path fill="none" stroke="black" d="M133.032,19.3915C124.417,36.6217 112.588,60.2808 104.529,76.3988"/>
</g>
<!-- Application&#45;&#45;Filesystem -->
<g id="edge6" class="edge"><title>Application&#45;&#45;Filesystem</title>
<path fill="none" stroke="black" d="M117.273,-24.7282C106.161,-33.8967 93.4258,-44.4045 82.8723,-53.1122"/>
</g>
<!-- GL&#45;&#45;Window manager -->
<g id="edge10" class="edge"><title>GL&#45;&#45;Window manager</title>
<path fill="none" stroke="black" d="M68.4652,94.4417C64.538,94.4417 60.3755,94.4417 56.1154,94.4417"/>
</g>
</g>
</svg>
